# xmcd
#
# Track frame offsets:
#	150
#	12182
#	21359
#	35013
#	47499
#	59366
#	71930
#	85293
#	98356
#	110375
#	122352
#	135599
#	148296
#	160372
#
# Disc length: 2299 seconds
#
# Revision: 1
# Processed by: cddbd v1.5.1PL0 Copyright (c) Steve Scherf et al.
# Submitted via: audiograbber 1.83.01
#
DISCID=bd08f90e
DTITLE=The Delmore Brothers - Sand Mountain Blues
DYEAR=1900
DGENRE=
TTITLE0=Kentucky Mountain
TTITLE1=Midnight Train
TTITLE2=Someday You'll Pay
TTITLE3=Remember I Feel Lonesome, Too
TTITLE4=Weary Day
TTITLE5=Prisoner's Farewell
TTITLE6=She Left Me Standing On The Mountain
TTITLE7=Mississippi Shore
TTITLE8=Sand Mountain Blues
TTITLE9=I Won't Be Worried Long
TTITLE10=Frozen Girl
TTITLE11=Going Back To The Blue Ridge Mountains
TTITLE12=I'm Lonesome Without You
TTITLE13=Last Old Shovel
EXTD=
EXTT0=
EXTT1=
EXTT2=
EXTT3=
EXTT4=
EXTT5=
EXTT6=
EXTT7=
EXTT8=
EXTT9=
EXTT10=
EXTT11=
EXTT12=
EXTT13=
PLAYORDER=
